<svg viewBox="0 0 1440 400" xmlns="http://www.w3.org/2000/svg" class="transition duration-300 ease-in-out delay-150"><defs><linearGradient id="a"><stop offset="5%" stop-color="#001e2d88"/><stop offset="95%" stop-color="#00b2b888"/></linearGradient></defs><path d="M0 400V133c90 8.02 180 16.038 271 28s183 27.866 285 15 214-54.502 318-74c104-19.498 200-16.856 293-8 93 8.856 183 23.928 273 39v267z" fill="url(#a)" class="transition-all duration-300 ease-in-out delay-150"/><path d="M0 400V266c123.598 3.139 247.196 6.278 329-3 81.804-9.278 121.813-30.971 220-46s254.55-23.392 353 1c98.45 24.392 138.986 81.54 219 95 80.014 13.46 199.507-16.77 319-47v134z" fill="url(#a)" class="transition-all duration-300 ease-in-out delay-150"/></svg>