<?xml version="1.0" standalone="no"?><svg xmlns="http://www.w3.org/2000/svg" viewBox="0 0 1440 320"><path fill="#001e2d" fill-opacity="1" d="M0,320L34.3,293.3C68.6,267,137,213,206,170.7C274.3,128,343,96,411,74.7C480,53,549,43,617,64C685.7,85,754,139,823,176C891.4,213,960,235,1029,218.7C1097.1,203,1166,149,1234,117.3C1302.9,85,1371,75,1406,69.3L1440,64L1440,0L1405.7,0C1371.4,0,1303,0,1234,0C1165.7,0,1097,0,1029,0C960,0,891,0,823,0C754.3,0,686,0,617,0C548.6,0,480,0,411,0C342.9,0,274,0,206,0C137.1,0,69,0,34,0L0,0Z"></path></svg>