<svg height="100%" width="100%" id="bg-svg" viewBox="0 0 1440 400" xmlns="http://www.w3.org/2000/svg" class="transition duration-300 ease-in-out delay-150"><defs><linearGradient id="gradient"><stop offset="5%" stop-color="#001e2d88"></stop><stop offset="95%" stop-color="#00b2b888"></stop></linearGradient></defs><path d="M 0,400 C 0,400 0,133 0,133 C 90,141.01913875598086 180,149.03827751196172 271,161 C 362,172.96172248803828 454,188.86602870813397 556,176 C 658,163.13397129186603 770,121.49760765550238 874,102 C 978,82.50239234449762 1074,85.14354066985646 1167,94 C 1260,102.85645933014354 1350,117.92822966507177 1440,133 C 1440,133 1440,400 1440,400 Z" stroke="none" stroke-width="0" fill="url(#gradient)" class="transition-all duration-300 ease-in-out delay-150"></path><defs><linearGradient id="gradient"><stop offset="5%" stop-color="#001e2dff"></stop><stop offset="95%" stop-color="#00b2b8ff"></stop></linearGradient></defs><path d="M 0,400 C 0,400 0,266 0,266 C 123.59808612440187,269.1387559808612 247.19617224880375,272.2775119617225 329,263 C 410.80382775119625,253.7224880382775 450.8133971291867,232.02870813397126 549,217 C 647.1866028708133,201.97129186602874 803.5502392344496,193.60765550239236 902,218 C 1000.4497607655504,242.39234449760764 1040.9856459330144,299.5406698564593 1121,313 C 1201.0143540669856,326.4593301435407 1320.5071770334928,296.22966507177034 1440,266 C 1440,266 1440,400 1440,400 Z" stroke="none" stroke-width="0" fill="url(#gradient)" class="transition-all duration-300 ease-in-out delay-150"></path></svg>